# xmcd
#
# Track frame offsets:
#       150
#       17540
#       40975
#       55073
#       66509
#       90192
#       107351
#       122509
#       146799
#       162919
#
# Disc length: 2355 seconds
#
# Revision: 0
# Processed by: cddbd v1.5.1PL2 Copyright (c) Steve Scherf et al.
# Submitted via: WaveLab 4.01
#
DISCID=7a09310a
DTITLE=Terri McFarland - Rock Of Ages
DYEAR=2000
DGENRE=Inspirational
TTITLE0=Come Thou Fount
TTITLE1=It Is Well
TTITLE2=Solid Rock
TTITLE3=Our Lord's Prayer
TTITLE4=Medley
TTITLE5=Rock Of Ages
TTITLE6=Amazing Grace
TTITLE7=In The Garden
TTITLE8=Be Thou My Vision
TTITLE9=I'd Rather Have Jesus
EXTD=
EXTT0=
EXTT1=
EXTT2=
EXTT3=
EXTT4=
EXTT5=
EXTT6=
EXTT7=
EXTT8=
EXTT9=
PLAYORDER=
